<svg width="40" height="41" viewBox="0 0 40 41" fill="none" xmlns="http://www.w3.org/2000/svg">
<circle cx="20" cy="20.5" r="20" fill="#FDB812" fill-opacity="0.05"/>
<path d="M23.254 13.2924L21.7819 14.7645L25.7358 18.7185L27.2079 17.2464C27.9683 16.486 27.9683 15.2542 27.2079 14.4938L26.0096 13.2924C25.2492 12.5321 24.0174 12.5321 23.257 13.2924H23.254ZM21.0945 15.4519L14.0048 22.5447C13.6884 22.861 13.4573 23.2534 13.3296 23.6822L12.2529 27.3412C12.1768 27.5997 12.2468 27.8765 12.4354 28.065C12.6239 28.2536 12.9007 28.3236 13.1562 28.2506L16.8151 27.1739C17.244 27.0461 17.6363 26.815 17.9526 26.4987L25.0485 19.4059L21.0945 15.4519Z" fill="url(#paint0_linear_154_9816)"/>
<defs>
<linearGradient id="paint0_linear_154_9816" x1="12.2227" y1="13.8334" x2="28.0931" y2="14.2468" gradientUnits="userSpaceOnUse">
<stop stop-color="#FF7300"/>
<stop offset="1" stop-color="#FFCD4D"/>
</linearGradient>
</defs>
</svg>
