<svg width="20" height="16" viewBox="0 0 20 16" fill="none" xmlns="http://www.w3.org/2000/svg">
<path d="M6.50056 11.0004C10.0913 11.0004 13.0008 8.53779 13.0008 5.50019C13.0008 2.46258 10.0913 0 6.50056 0C2.90982 0 0.000342025 2.46258 0.000342025 5.50019C0.000342025 6.70648 0.459733 7.82214 1.23788 8.73155C1.12851 9.02531 0.966 9.28469 0.794119 9.50345C0.644114 9.6972 0.490984 9.84721 0.37848 9.95034C0.322228 10.0003 0.275351 10.041 0.2441 10.066C0.228475 10.0785 0.215974 10.0878 0.209724 10.091L0.203474 10.0972C0.0315931 10.2253 -0.0434095 10.4504 0.0253429 10.6535C0.0940952 10.8566 0.284727 11.0004 0.500359 11.0004C1.18163 11.0004 1.86916 10.8254 2.44105 10.6097C2.72856 10.5004 2.99732 10.3785 3.2317 10.2535C4.19111 10.7285 5.30677 11.0004 6.50056 11.0004ZM14.0008 5.50019C14.0008 9.00968 10.9038 11.6535 7.23496 11.9692C7.99436 14.2942 10.5132 16.0005 13.5008 16.0005C14.6946 16.0005 15.8103 15.7287 16.7728 15.2536C17.0072 15.3786 17.2728 15.5005 17.5603 15.6099C18.1322 15.8255 18.8197 16.0005 19.501 16.0005C19.7166 16.0005 19.9104 15.8599 19.976 15.6537C20.0416 15.4474 19.9698 15.2224 19.7948 15.0943L19.7885 15.088C19.7823 15.0818 19.7698 15.0755 19.7541 15.063C19.7229 15.038 19.676 15.0005 19.6198 14.9474C19.5073 14.8443 19.3541 14.6942 19.2041 14.5005C19.0322 14.2817 18.8697 14.0192 18.7604 13.7286C19.5385 12.8223 19.9979 11.7066 19.9979 10.4972C19.9979 7.59713 17.3447 5.21893 13.9789 5.01267C13.9914 5.17205 13.9977 5.33456 13.9977 5.49706L14.0008 5.50019Z" fill="#AEAEAE" fill-opacity="0.6"/>
</svg>
