<svg width="25" height="24" viewBox="0 0 25 24" fill="none" xmlns="http://www.w3.org/2000/svg">
<path d="M14 5.12324V16.4998C14 17.3295 13.3297 17.9998 12.5 17.9998C11.6703 17.9998 11 17.3295 11 16.4998V5.12324L7.55938 8.56387C6.97344 9.14981 6.02188 9.14981 5.43594 8.56387C4.85 7.97793 4.85 7.02637 5.43594 6.44043L11.4359 0.44043C12.0219 -0.145508 12.9734 -0.145508 13.5594 0.44043L19.5594 6.44043C20.1453 7.02637 20.1453 7.97793 19.5594 8.56387C18.9734 9.14981 18.0219 9.14981 17.4359 8.56387L14 5.12324ZM3.5 16.4998H9.5C9.5 18.1545 10.8453 19.4998 12.5 19.4998C14.1547 19.4998 15.5 18.1545 15.5 16.4998H21.5C23.1547 16.4998 24.5 17.8451 24.5 19.4998V20.9998C24.5 22.6545 23.1547 23.9998 21.5 23.9998H3.5C1.84531 23.9998 0.5 22.6545 0.5 20.9998V19.4998C0.5 17.8451 1.84531 16.4998 3.5 16.4998ZM20.75 21.3748C21.0484 21.3748 21.3345 21.2563 21.5455 21.0453C21.7565 20.8343 21.875 20.5482 21.875 20.2498C21.875 19.9514 21.7565 19.6653 21.5455 19.4543C21.3345 19.2433 21.0484 19.1248 20.75 19.1248C20.4516 19.1248 20.1655 19.2433 19.9545 19.4543C19.7435 19.6653 19.625 19.9514 19.625 20.2498C19.625 20.5482 19.7435 20.8343 19.9545 21.0453C20.1655 21.2563 20.4516 21.3748 20.75 21.3748Z" fill="black"/>
</svg>
