<svg width="120" height="43" viewBox="0 0 120 43" fill="none" xmlns="http://www.w3.org/2000/svg">
<path d="M94.4506 12.6826C93.1505 11.9323 91.8714 11.1924 90.5975 10.4525C93.8215 4.50199 101.758 0.613692 109.679 3.51548C117.627 6.42777 121.841 15.1594 119.225 23.2036C116.452 31.7305 106.995 36.3954 98.3665 32.9899C97.6431 34.2388 96.9197 35.4929 96.1753 36.7838C94.8752 36.0334 93.5909 35.2883 92.275 34.5326C93.7691 31.9457 95.2474 29.3797 96.7519 26.7718C99.8396 29.2853 103.299 30.2193 107.173 29.1908C110.125 28.4037 112.384 26.6406 113.946 24.0169C117.008 18.8693 115.399 12.1264 110.324 8.85205C105.029 5.43077 97.8213 6.97874 94.4506 12.6826Z" fill="url(#paint0_linear_55_16800)"/>
<path d="M95.2776 13.8789C97.9773 15.4426 100.661 16.9906 103.366 18.5543C101.804 21.2619 100.263 23.9381 98.7165 26.6143C94.8529 24.3002 92.8818 18.6383 95.2776 13.8789Z" fill="url(#paint1_linear_55_16800)"/>
<path d="M99.7919 27.27C101.333 24.6044 102.853 21.9597 104.379 19.315C104.4 19.2783 104.431 19.2521 104.478 19.1943C107.157 20.7423 109.836 22.2903 112.52 23.8435C109.988 27.9312 104.248 29.5999 99.7919 27.27Z" fill="url(#paint2_linear_55_16800)"/>
<path d="M113.17 22.7679C110.47 21.2095 107.802 19.6667 105.081 18.0925C106.638 15.3954 108.184 12.714 109.731 10.0273C113.631 12.3782 115.555 18.0558 113.17 22.7627V22.7679Z" fill="url(#paint3_linear_55_16800)"/>
<path d="M95.9232 12.7977C98.6544 8.53157 104.395 7.13577 108.657 9.37639C107.11 12.063 105.558 14.7444 103.996 17.4626C101.297 15.9041 98.623 14.3561 95.9232 12.7977Z" fill="url(#paint4_linear_55_16800)"/>
<path d="M94.0935 41.6217C92.9507 42.5768 91.7293 42.687 90.4292 41.9786C89.1029 41.0288 88.8565 39.6225 89.2235 38.5153C89.5957 37.3976 90.6337 36.5738 91.7922 36.5108C93.0765 36.4426 94.0726 36.9621 94.6597 38.1113C95.2416 39.2394 95.1 40.3361 94.3242 41.3489C94.2508 41.4433 94.1669 41.5325 94.0883 41.627L94.0935 41.6217Z" fill="#FF7300"/>
<path d="M99.8122 21.2099C98.5331 20.47 97.2907 19.7512 96.0221 19.0165C96.2108 18.6859 96.3943 18.3711 96.5935 18.0195C97.8569 18.7489 99.1045 19.473 100.384 20.2077C100.19 20.5435 100.011 20.8531 99.807 21.2047L99.8122 21.2099Z" fill="#FDFEFD"/>
<path d="M103.933 23.5233C104.127 23.1979 104.29 22.9146 104.457 22.626C105.726 23.3606 106.963 24.0742 108.242 24.8141C108.069 25.1132 107.912 25.3913 107.723 25.7114C106.46 24.982 105.207 24.2579 103.928 23.518L103.933 23.5233Z" fill="#FEFDFD"/>
<path d="M105.36 24.8458C105.727 24.8668 106.01 25.1921 105.984 25.5647C105.957 25.9373 105.632 26.2101 105.26 26.1786C104.898 26.1471 104.647 25.8533 104.663 25.486C104.678 25.1134 104.993 24.8248 105.36 24.8458Z" fill="#FDFBFB"/>
<path d="M106.849 23.4973C106.477 23.4816 106.194 23.172 106.209 22.7942C106.225 22.4216 106.545 22.1277 106.912 22.154C107.263 22.1802 107.536 22.4793 107.536 22.8361C107.536 23.2087 107.216 23.5078 106.849 23.4973Z" fill="#FDFBFB"/>
<path d="M112.526 16.2404C112.018 16.3821 111.535 16.5132 111.001 16.6602C111.132 17.1744 111.257 17.6782 111.394 18.2134C111.037 18.3131 110.702 18.4075 110.309 18.5177C110.162 18.0035 110.02 17.505 109.868 16.9698C109.354 17.1009 108.862 17.2269 108.322 17.3686C108.222 17.0065 108.128 16.6602 108.023 16.2771C108.547 16.1302 109.045 15.9885 109.575 15.8416C109.438 15.3221 109.313 14.8288 109.171 14.2936C109.533 14.1939 109.879 14.0995 110.267 13.9893C110.408 14.5087 110.55 15.0125 110.696 15.5425C111.21 15.406 111.703 15.2801 112.227 15.1384C112.364 15.49 112.453 15.8521 112.526 16.2404Z" fill="#FEFEFE"/>
<path d="M104.856 12.4624C104.657 12.8035 104.484 13.1078 104.284 13.4489C103.818 13.1813 103.367 12.9241 102.885 12.6513C102.612 13.1235 102.355 13.5643 102.077 14.0418C101.742 13.8529 101.427 13.6745 101.081 13.4804C101.344 13.0134 101.595 12.5726 101.873 12.0793C101.417 11.8065 100.966 11.5441 100.489 11.266C100.683 10.9354 100.861 10.6206 101.06 10.2795C101.532 10.5471 101.973 10.799 102.45 11.0718C102.722 10.6153 102.984 10.164 103.267 9.68652C103.598 9.87543 103.912 10.0591 104.253 10.2532C103.991 10.715 103.734 11.161 103.456 11.6438C103.907 11.9114 104.358 12.179 104.84 12.4676L104.856 12.4624Z" fill="#FEFEFD"/>
<path d="M13.9081 23.4188L3.85868 7.3252H0.115723V34.7899H5.42087V18.4339L12.0942 29.1647H15.6852L22.4005 18.3709V34.7899H27.6689V7.3252H23.9207L13.9081 23.4188Z" fill="#00243C"/>
<path d="M46.0892 17.7351C45.5703 17.1789 44.9622 16.7119 44.2545 16.3498C43.185 15.8041 41.9793 15.5312 40.6268 15.5312C38.9074 15.5312 37.3609 15.9615 35.9822 16.8221C34.6035 17.6827 33.5236 18.8528 32.7425 20.3378C31.9614 21.8228 31.5735 23.502 31.5735 25.3753C31.5735 27.2486 31.9614 28.891 32.7425 30.376C33.5236 31.861 34.6035 33.0312 35.9822 33.8918C37.3609 34.7523 38.9074 35.1826 40.6268 35.1826C41.9793 35.1826 43.1903 34.9045 44.2545 34.343C44.9622 33.9705 45.5703 33.4982 46.0892 32.9472V34.7891H51.1637V15.9196H46.0892V17.7351ZM45.0356 29.0275C44.1496 29.9772 42.9911 30.4547 41.56 30.4547C40.6216 30.4547 39.7986 30.2396 39.0804 29.8093C38.3622 29.379 37.8065 28.7808 37.4029 28.0147C36.9992 27.2486 36.8 26.3566 36.8 25.3386C36.8 24.3206 36.9992 23.4705 37.4029 22.6991C37.8065 21.933 38.3674 21.3296 39.0804 20.8993C39.7986 20.469 40.6216 20.2539 41.56 20.2539C42.4983 20.2539 43.3633 20.469 44.0762 20.8993C44.7892 21.3296 45.3501 21.9278 45.7537 22.6991C46.1574 23.4705 46.3566 24.3468 46.3566 25.3386C46.3566 26.8498 45.9163 28.0777 45.0303 29.0327L45.0356 29.0275Z" fill="#00243C"/>
<path d="M63.5785 8.07031H58.4673V15.9204H54.0533V20.4121H58.4673V34.7899H63.5785V20.4121H67.9872V15.9204H63.5785V8.07031Z" fill="#00243C"/>
<path d="M87.7404 19.0474C87.1166 17.956 86.2516 17.0954 85.1455 16.471C84.0394 15.8465 82.7707 15.5317 81.3396 15.5317C79.9085 15.5317 78.6399 15.8465 77.5337 16.471C76.9519 16.8016 76.4434 17.2004 75.9925 17.6621V6.54297H70.8813V34.7895H75.9925V23.9695C75.9925 23.2138 76.155 22.5527 76.4801 21.9755C76.8051 21.4035 77.2559 20.9575 77.8273 20.6479C78.3987 20.333 79.0488 20.1809 79.7774 20.1809C80.894 20.1809 81.8062 20.5324 82.5086 21.2356C83.2111 21.9387 83.5623 22.8518 83.5623 23.9695V34.7895H88.6735V22.836C88.6735 21.4035 88.359 20.1389 87.7351 19.0474H87.7404Z" fill="#00243C"/>
<path d="M46.1169 42.1357C46.0068 42.1357 45.9125 42.1777 45.8338 42.2563C45.7604 42.3349 45.7185 42.4293 45.7185 42.5446C45.7185 42.66 45.7552 42.7543 45.8338 42.833C45.9125 42.9116 46.0068 42.9483 46.1169 42.9483C46.227 42.9483 46.3266 42.9064 46.4052 42.8277C46.4839 42.7491 46.5206 42.6547 46.5206 42.5394C46.5206 42.4241 46.4839 42.3297 46.4052 42.2511C46.3318 42.1724 46.2322 42.1357 46.1169 42.1357Z" fill="#1E4554"/>
<path d="M47.1124 42.1357C47.0023 42.1357 46.908 42.1777 46.8293 42.2563C46.7507 42.3349 46.714 42.4293 46.714 42.5446C46.714 42.66 46.7507 42.7543 46.8293 42.833C46.908 42.9116 47.0023 42.9483 47.1124 42.9483C47.2225 42.9483 47.3168 42.9064 47.3955 42.8277C47.4741 42.7491 47.5108 42.6547 47.5108 42.5394C47.5108 42.4241 47.4689 42.3297 47.3955 42.2511C47.3168 42.1724 47.2277 42.1357 47.1124 42.1357Z" fill="#1E4554"/>
<path d="M53.1938 38.3146C53.3091 38.3146 53.4035 38.2727 53.4874 38.194C53.566 38.1102 53.6079 38.0158 53.6079 37.9005C53.6079 37.7851 53.566 37.6908 53.4874 37.6069C53.4035 37.5283 53.3091 37.4863 53.1938 37.4863C53.0785 37.4863 52.9841 37.5283 52.9002 37.6069C52.8216 37.6908 52.7797 37.7851 52.7797 37.9005C52.7797 38.0158 52.8216 38.1154 52.9002 38.194C52.9789 38.2727 53.0785 38.3094 53.1938 38.3094V38.3146Z" fill="#1E4554"/>
<path d="M55.9668 38.5369C55.4793 38.5369 54.997 38.6156 54.5147 38.773L54.5881 39.3397C55.0284 39.1928 55.4531 39.1246 55.8672 39.1246C56.4596 39.1246 56.8894 39.2767 57.162 39.5706C57.4294 39.8644 57.5605 40.3262 57.5605 40.9506V41.0241H56.9523V40.8877C56.9523 40.5204 56.8685 40.2318 56.706 40.0219C56.5172 39.7805 56.2342 39.665 55.8515 39.665C55.495 39.665 55.2172 39.7595 55.0075 39.9484C54.803 40.1321 54.7034 40.3734 54.7034 40.6725C54.7034 40.83 54.7559 40.9611 54.8607 41.0556C54.7821 41.0346 54.6877 41.0241 54.5776 41.0241H53.5816V38.8255H52.79V41.0241H49.8386V40.0743C49.8386 39.6388 49.739 39.3135 49.5451 39.1036C49.3249 38.8674 48.9579 38.7468 48.4547 38.7468C48.0248 38.7468 47.6212 38.7835 47.2542 38.8622V41.0189H46.8453C46.3001 41.0189 45.9122 40.9192 45.6815 40.7145C45.4666 40.5256 45.3565 40.2108 45.3565 39.7752C45.3565 39.4132 45.4247 39.0826 45.561 38.7835L44.717 38.9199C44.6121 39.2033 44.5597 39.5181 44.5597 39.8644C44.5597 40.4417 44.7222 40.8772 45.0472 41.1605C45.4037 41.4806 45.9751 41.6381 46.7614 41.6381H48.0143V39.4027C48.1454 39.3817 48.2764 39.3659 48.4075 39.3659C48.6539 39.3659 48.8269 39.4237 48.9265 39.5391C49.0261 39.6546 49.0733 39.8592 49.0733 40.1478V41.6328H58.3153V40.9926C58.3153 39.3502 57.529 38.5264 55.9616 38.5264L55.9668 38.5369ZM56.3128 41.0451H55.9196C55.5422 41.0451 55.3535 40.8877 55.3535 40.5728C55.3535 40.2947 55.5055 40.1583 55.8043 40.1583C56.145 40.1583 56.3128 40.3944 56.3128 40.8719V41.0451Z" fill="#1E4554"/>
<path d="M59.857 38.3146C59.9723 38.3146 60.0719 38.2727 60.1506 38.194C60.2292 38.1154 60.2711 38.0158 60.2711 37.9005C60.2711 37.7851 60.2292 37.6908 60.1506 37.6069C60.0719 37.5283 59.9723 37.4863 59.857 37.4863C59.7417 37.4863 59.6473 37.5283 59.5634 37.6069C59.4848 37.6908 59.4429 37.7851 59.4429 37.9005C59.4429 38.0158 59.4848 38.1154 59.5634 38.194C59.6473 38.2727 59.7417 38.3094 59.857 38.3094V38.3146Z" fill="#1E4554"/>
<path d="M62.5399 41.018H61.4967C61.46 40.3674 61.2765 39.8479 60.9358 39.4701C60.616 39.1132 60.139 38.8456 59.5047 38.6777L59.3159 39.3389C60.2228 39.5698 60.6946 40.126 60.7313 41.018H58.9542V41.6425H63.3367V37.4131H62.5452V41.018H62.5399Z" fill="#1E4554"/>
<path d="M65.1363 37.4131H64.3447V41.6425H65.1363V37.4131Z" fill="#1E4554"/>
<path d="M69.182 42.1309C69.0666 42.1309 68.967 42.1728 68.8884 42.2514C68.8098 42.3301 68.7678 42.4297 68.7678 42.545C68.7678 42.6603 68.8098 42.7599 68.8884 42.8386C68.967 42.9172 69.0666 42.9591 69.182 42.9591C69.2973 42.9591 69.3917 42.9172 69.4703 42.8386C69.5542 42.7599 69.5961 42.6603 69.5961 42.545C69.5961 42.4297 69.5542 42.3301 69.4703 42.2514C69.3917 42.1728 69.2921 42.1309 69.182 42.1309Z" fill="#1E4554"/>
<path d="M70.2096 41.0186H69.3918C68.8466 41.0186 68.4587 40.9189 68.228 40.7142C68.0131 40.5253 67.903 40.2105 67.903 39.775C67.903 39.4129 67.9712 39.0823 68.1075 38.7832L67.2635 38.9196C67.1586 39.203 67.1062 39.5178 67.1062 39.8642C67.1062 40.4414 67.2687 40.8769 67.5937 41.1603C67.9502 41.4804 68.5216 41.6378 69.3079 41.6378H70.9959V38.8147H70.2044V41.0133L70.2096 41.0186Z" fill="#1E4554"/>
<path d="M84.6265 41.0184H83.5099C83.5257 40.8662 83.5309 40.7035 83.5309 40.5304C83.5309 39.9427 83.3841 39.5071 83.0958 39.229C82.7917 38.9352 82.3095 38.7883 81.6489 38.7883C81.4183 38.7883 81.1614 38.8092 80.8836 38.846V39.4652C81.1195 39.4337 81.3501 39.4179 81.5703 39.4179C81.9897 39.4179 82.2937 39.5124 82.4825 39.7065C82.6555 39.8902 82.7446 40.1788 82.7446 40.5671C82.7446 40.714 82.7341 40.8662 82.7131 41.0236H79.898C79.919 40.7298 79.9295 40.4727 79.9295 40.2523C79.9295 39.6803 79.8666 39.1293 79.7355 38.5889L78.9649 38.6938C79.0802 39.2133 79.1379 39.7485 79.1379 40.2995C79.1379 40.5566 79.1222 40.798 79.096 41.0184H78.9387C78.6556 41.0184 78.4721 40.9817 78.3778 40.9082C78.2782 40.8347 78.231 40.6773 78.231 40.4464V38.9404H77.4709V40.2943C77.4709 40.8032 77.3084 41.0604 76.9886 41.0604C76.8208 41.0604 76.7055 40.9974 76.6478 40.8767C76.6007 40.7718 76.5745 40.5776 76.5745 40.289V39.1766H75.7829V40.268C75.7829 40.5566 75.7409 40.7508 75.6571 40.861C75.5784 40.9607 75.4421 41.0131 75.2429 41.0131H72.7371V37.4082H71.9456V41.6376H75.2324C75.6413 41.6376 75.9087 41.4959 76.0293 41.2178C76.1341 41.5274 76.3962 41.6848 76.8261 41.6848C77.2874 41.6848 77.5862 41.5326 77.7277 41.223C77.8116 41.3857 77.9427 41.4959 78.1104 41.5536C78.2677 41.6061 78.5088 41.6376 78.8339 41.6376H85.3971V37.4082H84.6056V41.0131L84.6265 41.0184Z" fill="#1E4554"/>
<path d="M87.2263 37.4131H86.4347V41.6425H87.2263V37.4131Z" fill="#1E4554"/>
<path d="M42.5412 38.4316H0.115723V41.2285H42.5412V38.4316Z" fill="url(#paint5_linear_55_16800)"/>
<path d="M3.67481 0.738811C3.45464 0.534164 3.19253 0.376743 2.89372 0.266548C2.59491 0.156354 2.26465 0.0986328 1.90818 0.0986328H0V4.73205H1.91866C2.26989 4.73205 2.59491 4.67433 2.89372 4.56414C3.19253 4.45394 3.4494 4.29652 3.67481 4.09187C3.89499 3.88723 4.06798 3.6406 4.19379 3.36249C4.31961 3.08438 4.37727 2.76429 4.37727 2.41797C4.37727 2.07164 4.31436 1.76205 4.19379 1.47869C4.07322 1.19533 3.89499 0.953953 3.67481 0.749305V0.738811ZM3.03002 3.12636C2.92517 3.32576 2.77839 3.47269 2.58442 3.57239C2.39046 3.67209 2.16505 3.72456 1.90293 3.72456H1.17426V1.10613H1.90293C2.16505 1.10613 2.39046 1.1586 2.57918 1.2583C2.77315 1.358 2.91993 1.50493 3.02477 1.69908C3.12962 1.89323 3.18728 2.12936 3.18728 2.40747C3.18728 2.68558 3.13486 2.93221 3.03002 3.13161V3.12636Z" fill="#FF7300"/>
<path d="M8.97401 0.702665C8.75384 0.482276 8.49173 0.31436 8.19292 0.198918C7.89411 0.0782288 7.56385 0.0205078 7.20738 0.0205078C6.8509 0.0205078 6.52064 0.0782288 6.22184 0.198918C5.92303 0.319607 5.66092 0.487523 5.44074 0.702665C5.22057 0.923054 5.04757 1.17493 4.92176 1.46353C4.79595 1.75214 4.73828 2.06698 4.73828 2.40806C4.73828 2.74914 4.80119 3.06398 4.927 3.35783C5.05282 3.65168 5.22581 3.9088 5.45123 4.12394C5.67664 4.33909 5.93875 4.51225 6.23756 4.63294C6.53637 4.75363 6.86663 4.8166 7.2231 4.8166C7.57958 4.8166 7.89935 4.75887 8.19816 4.63819C8.49697 4.5175 8.75384 4.34958 8.97925 4.12919C9.19943 3.9088 9.37242 3.65168 9.49824 3.36308C9.62405 3.06922 9.68696 2.75438 9.68696 2.41855C9.68696 2.08272 9.62405 1.76263 9.49824 1.47403C9.37242 1.18017 9.19943 0.928301 8.97925 0.707912L8.97401 0.702665ZM8.32397 3.1217C8.21913 3.32635 8.07235 3.48377 7.87838 3.59921C7.68442 3.71465 7.459 3.76712 7.20213 3.76712C7.00817 3.76712 6.82994 3.73564 6.67267 3.67267C6.5154 3.6097 6.3791 3.5205 6.26902 3.39981C6.15369 3.27912 6.06981 3.13744 6.01215 2.96952C5.95448 2.80161 5.92303 2.6127 5.92303 2.40281C5.92303 2.13519 5.97545 1.89382 6.0803 1.68917C6.18514 1.48452 6.33192 1.3271 6.52589 1.21691C6.71985 1.10671 6.94526 1.04899 7.20213 1.04899C7.3961 1.04899 7.57433 1.08047 7.7316 1.14869C7.88887 1.21166 8.02517 1.30611 8.13525 1.4268C8.25058 1.54749 8.33446 1.68917 8.39212 1.85184C8.44979 2.01975 8.48124 2.19816 8.48124 2.40281C8.48124 2.67567 8.42882 2.91705 8.32397 3.1217Z" fill="#FF7300"/>
<path d="M13.1422 3.66218C12.9744 3.73039 12.7857 3.76188 12.5708 3.76188C12.3821 3.76188 12.2143 3.73039 12.057 3.66742C11.905 3.60446 11.7687 3.51525 11.6534 3.39456C11.5381 3.27387 11.4542 3.13219 11.3913 2.96428C11.3284 2.79636 11.2969 2.6127 11.2969 2.40806C11.2969 2.20341 11.3284 2.01975 11.3913 1.85184C11.4542 1.68917 11.5433 1.54224 11.6534 1.4268C11.7687 1.30611 11.8998 1.21691 12.057 1.15394C12.2091 1.09097 12.3821 1.06473 12.5708 1.06473C12.7857 1.06473 12.9797 1.10146 13.1369 1.16968C13.2995 1.2379 13.4305 1.3376 13.5406 1.45828L14.3217 0.676428C14.1015 0.471781 13.8447 0.31436 13.5511 0.193671C13.2575 0.0782288 12.9325 0.0205078 12.5655 0.0205078C12.1986 0.0205078 11.8945 0.0834762 11.5957 0.204165C11.2969 0.324855 11.0348 0.49277 10.8146 0.707912C10.5892 0.923054 10.4162 1.17493 10.2904 1.46353C10.1646 1.75214 10.1069 2.07223 10.1069 2.4133C10.1069 2.75438 10.1698 3.06922 10.2904 3.35783C10.4162 3.65168 10.5892 3.90355 10.8146 4.1187C11.0401 4.33384 11.3022 4.50175 11.601 4.62244C11.8998 4.74313 12.23 4.80085 12.5813 4.80085C12.964 4.80085 13.2995 4.74313 13.5825 4.63294C13.8656 4.5175 14.1225 4.36007 14.3479 4.15543L13.5668 3.37357C13.4515 3.49951 13.3099 3.59396 13.1422 3.66218Z" fill="#FF7300"/>
<path d="M14.5002 1.10613H15.9156V4.73205H17.0847V1.10613H18.5001V0.0986328H14.5002V1.10613Z" fill="#FF7300"/>
<path d="M22.8248 0.702665C22.6047 0.482276 22.3426 0.31436 22.0437 0.198918C21.7449 0.0782288 21.4147 0.0205078 21.0582 0.0205078C20.7017 0.0205078 20.3715 0.0782288 20.0727 0.198918C19.7739 0.319607 19.5117 0.487523 19.2916 0.702665C19.0714 0.923054 18.8984 1.17493 18.7726 1.46353C18.6468 1.75214 18.5891 2.06698 18.5891 2.40806C18.5891 2.74914 18.652 3.06398 18.7778 3.35783C18.9036 3.65168 19.0766 3.9088 19.3021 4.12394C19.5275 4.33909 19.7896 4.51225 20.0884 4.63294C20.3872 4.75363 20.7175 4.8166 21.0739 4.8166C21.4304 4.8166 21.7502 4.75887 22.049 4.63819C22.3478 4.5175 22.6047 4.34958 22.8301 4.12919C23.0503 3.9088 23.2233 3.65168 23.3491 3.36308C23.4749 3.06922 23.5378 2.75438 23.5378 2.41855C23.5378 2.08272 23.4749 1.76263 23.3491 1.47403C23.2233 1.18017 23.0503 0.928301 22.8301 0.707912L22.8248 0.702665ZM22.18 3.1217C22.0752 3.32635 21.9284 3.48377 21.7345 3.59921C21.5405 3.71465 21.3151 3.76712 21.0582 3.76712C20.8642 3.76712 20.686 3.73564 20.5287 3.67267C20.3715 3.6097 20.2352 3.5205 20.1251 3.39981C20.0098 3.27912 19.9259 3.13744 19.8682 2.96952C19.8106 2.80161 19.7791 2.6127 19.7791 2.40281C19.7791 2.13519 19.8315 1.89382 19.9364 1.68917C20.0412 1.48452 20.188 1.3271 20.382 1.21691C20.5759 1.10671 20.8013 1.04899 21.0582 1.04899C21.2522 1.04899 21.4304 1.08047 21.5877 1.14869C21.7449 1.21166 21.8812 1.30611 21.9913 1.4268C22.1067 1.54749 22.1905 1.68917 22.2482 1.85184C22.3059 2.01975 22.3373 2.19816 22.3373 2.40281C22.3373 2.67567 22.2849 2.91705 22.18 3.1217Z" fill="#FF7300"/>
<path d="M26.6249 4.73205H27.9774L26.5568 2.79578C26.6774 2.76954 26.7927 2.73281 26.9028 2.68558C27.1439 2.57014 27.3379 2.40747 27.4742 2.20282C27.6105 1.99818 27.6786 1.7568 27.6786 1.47869C27.6786 1.20058 27.6105 0.964447 27.4742 0.7598C27.3379 0.555153 27.1544 0.392485 26.9185 0.277043C26.6826 0.161601 26.4048 0.0986328 26.0955 0.0986328H24.1244V4.73205H25.2934V2.85874H25.3616L26.6302 4.73205H26.6249ZM25.9277 0.969695C26.1217 0.969695 26.2685 1.01692 26.3681 1.11662C26.4677 1.21632 26.5201 1.34226 26.5201 1.49968C26.5201 1.6571 26.4677 1.78828 26.3681 1.88274C26.2632 1.97719 26.1164 2.02441 25.9277 2.02441H25.2882V0.969695H25.9277Z" fill="#FF7300"/>
<defs>
<linearGradient id="paint0_linear_55_16800" x1="90.5975" y1="19.6564" x2="120.001" y2="19.6564" gradientUnits="userSpaceOnUse">
<stop stop-color="#698A91"/>
<stop offset="0.54" stop-color="#335C64"/>
<stop offset="1" stop-color="#02383B"/>
</linearGradient>
<linearGradient id="paint1_linear_55_16800" x1="94.2343" y1="20.2492" x2="103.366" y2="20.2492" gradientUnits="userSpaceOnUse">
<stop stop-color="#64C08A"/>
<stop offset="0.5" stop-color="#00A550"/>
<stop offset="1" stop-color="#00914C"/>
</linearGradient>
<linearGradient id="paint2_linear_55_16800" x1="99.7919" y1="23.7648" x2="112.52" y2="23.7648" gradientUnits="userSpaceOnUse">
<stop stop-color="#F37E5F"/>
<stop offset="0.5" stop-color="#EC1C24"/>
<stop offset="1" stop-color="#CF232A"/>
</linearGradient>
<linearGradient id="paint3_linear_55_16800" x1="105.086" y1="16.3976" x2="114.218" y2="16.3976" gradientUnits="userSpaceOnUse">
<stop offset="0.01" stop-color="#3EB0CA"/>
<stop offset="0.5" stop-color="#0099B9"/>
<stop offset="0.99" stop-color="#007C84"/>
</linearGradient>
<linearGradient id="paint4_linear_55_16800" x1="95.9232" y1="12.8921" x2="108.657" y2="12.8921" gradientUnits="userSpaceOnUse">
<stop stop-color="#F69453"/>
<stop offset="0.5" stop-color="#F37521"/>
<stop offset="1" stop-color="#D4622A"/>
</linearGradient>
<linearGradient id="paint5_linear_55_16800" x1="0.115723" y1="39.8327" x2="42.5412" y2="39.8327" gradientUnits="userSpaceOnUse">
<stop stop-color="#1E4554"/>
<stop offset="0.34" stop-color="#89A3B1"/>
</linearGradient>
</defs>
</svg>