<svg width="36" height="36" viewBox="0 0 36 36" fill="none" xmlns="http://www.w3.org/2000/svg">
<circle cx="18" cy="18" r="18" fill="#B558F6" fill-opacity="0.05"/>
<path d="M20.9282 11.5133L19.6033 12.8381L23.1619 16.3967L24.4867 15.0718C25.1711 14.3875 25.1711 13.2788 24.4867 12.5945L23.4082 11.5133C22.7239 10.8289 21.6153 10.8289 20.9309 11.5133H20.9282ZM18.9847 13.4568L12.6039 19.8403C12.3192 20.125 12.1112 20.4781 11.9962 20.864L11.0272 24.1571C10.9587 24.3898 11.0217 24.6389 11.1914 24.8086C11.3611 24.9783 11.6102 25.0412 11.8402 24.9756L15.1332 24.0065C15.5192 23.8916 15.8723 23.6835 16.157 23.3988L22.5432 17.0153L18.9847 13.4568Z" fill="#B558F6"/>
</svg>
