<svg width="20" height="20" viewBox="0 0 20 20" fill="none" xmlns="http://www.w3.org/2000/svg">
<path fill-rule="evenodd" clip-rule="evenodd" d="M10 20C5.28595 20 2.92893 20 1.46447 18.5355C-1.19209e-07 17.0711 0 14.714 0 10C0 5.28595 -1.19209e-07 2.92893 1.46447 1.46447C2.92893 -1.19209e-07 5.28595 0 10 0C14.714 0 17.0711 -1.19209e-07 18.5355 1.46447C20 2.92893 20 5.28595 20 10C20 14.714 20 17.0711 18.5355 18.5355C17.0711 20 14.714 20 10 20ZM10 5.75C9.3787 5.75 8.875 6.25368 8.875 6.875C8.875 7.28921 8.5392 7.625 8.125 7.625C7.71079 7.625 7.375 7.28921 7.375 6.875C7.375 5.42525 8.5503 4.25 10 4.25C11.4497 4.25 12.625 5.42525 12.625 6.875C12.625 7.58584 12.3415 8.232 11.883 8.704C11.7907 8.7989 11.7027 8.8869 11.6187 8.9708C11.4029 9.1864 11.2138 9.3753 11.0479 9.5885C10.8289 9.8699 10.75 10.0768 10.75 10.25V11C10.75 11.4142 10.4142 11.75 10 11.75C9.5858 11.75 9.25 11.4142 9.25 11V10.25C9.25 9.5948 9.555 9.0644 9.8642 8.6672C10.0929 8.3733 10.3804 8.0863 10.6138 7.85346C10.6842 7.78321 10.7496 7.71789 10.807 7.65877C11.0046 7.45543 11.125 7.18004 11.125 6.875C11.125 6.25368 10.6213 5.75 10 5.75ZM10 15C10.5523 15 11 14.5523 11 14C11 13.4477 10.5523 13 10 13C9.4477 13 9 13.4477 9 14C9 14.5523 9.4477 15 10 15Z" fill="#AEAEAE" fill-opacity="0.6"/>
</svg>
