<svg width="20" height="20" viewBox="0 0 20 20" fill="none" xmlns="http://www.w3.org/2000/svg">
<path d="M6.66667 19.6234H4.44444C1.98984 19.6234 0 17.6336 0 15.179V8.18744C0 6.6333 0.811789 5.19205 2.14088 4.38654L7.69643 1.01954C9.11233 0.161454 10.8877 0.161454 12.3036 1.01954L17.8591 4.38654C19.1882 5.19205 20 6.6333 20 8.18744V15.179C20 17.6336 18.0101 19.6234 15.5556 19.6234H13.3333M6.66667 19.6234V15.179C6.66667 13.338 8.159 11.8457 10 11.8457C11.841 11.8457 13.3333 13.338 13.3333 15.179V19.6234M6.66667 19.6234H13.3333H6.66667Z" fill="#CACACA"/>
</svg>
