<svg width="18" height="22" viewBox="0 0 18 22" fill="none" xmlns="http://www.w3.org/2000/svg">
<path d="M7.76556 3.0153L7.96612 2.97484V2.77024V1.99874C7.96612 1.42959 8.43282 0.962891 9.00197 0.962891C9.57111 0.962891 10.0378 1.42959 10.0378 1.99874V2.77024V2.97484L10.2384 3.0153C13.0555 3.58367 15.1812 6.08025 15.1812 9.07088V9.82953C15.1812 11.7809 15.898 13.6655 17.1853 15.1254L17.1856 15.1257L17.4813 15.46L17.4813 15.4601L17.4856 15.4647C17.7611 15.7606 17.8258 16.1927 17.6587 16.5687C17.4936 16.9402 17.1209 17.1789 16.717 17.1789H1.2869C0.879478 17.1789 0.484897 16.9245 0.333706 16.5717C0.177444 16.2071 0.242116 15.7586 0.50866 15.4613L0.509763 15.46L0.804923 15.1264C0.805025 15.1262 0.805126 15.1261 0.805228 15.126C2.10597 13.6658 2.82274 11.7809 2.82274 9.82953V9.07088C2.82274 6.08025 4.94843 3.58367 7.76556 3.0153ZM7.35519 20.3662C6.98296 19.9839 6.75022 19.4891 6.69372 18.9647H9.00197H11.3102C11.2538 19.488 11.0219 19.9819 10.6511 20.3638C10.2087 20.7933 9.61631 21.0364 9.00197 21.0364C8.38162 21.0364 7.77966 20.8022 7.35519 20.3662Z" stroke="black" stroke-width="0.5"/>
</svg>
