<svg width="20" height="24" viewBox="0 0 20 24" fill="none" xmlns="http://www.w3.org/2000/svg">
<path d="M10.0022 0.570312C9.21639 0.570312 8.57347 1.21323 8.57347 1.99903V2.85626C5.316 3.51347 2.8586 6.39948 2.8586 9.85697V10.6999C2.8586 12.8001 2.0871 14.8289 0.686953 16.4005L0.358349 16.772C-0.0131177 17.1863 -0.0988406 17.8006 0.115467 18.3007C0.329774 18.8007 0.872687 19.1436 1.42989 19.1436H18.5745C19.1317 19.1436 19.646 18.815 19.8746 18.3007C20.1032 17.7863 20.0175 17.1863 19.6317 16.772L19.3031 16.4005C17.9173 14.8289 17.1458 12.8001 17.1458 10.6999V9.85697C17.1458 6.39948 14.6884 3.51347 11.4309 2.85626V1.99903C11.4309 1.21323 10.788 0.570312 10.0022 0.570312ZM12.031 22.6011C12.5596 22.0582 12.8596 21.3296 12.8596 20.5723H10.0022H7.14475C7.14475 21.3296 7.44478 22.0582 7.97341 22.6011C8.50203 23.144 9.24497 23.4298 10.0022 23.4298C10.7594 23.4298 11.4881 23.1297 12.031 22.6011Z" fill="#AEAEAE" fill-opacity="0.6"/>
<path d="M8.62291 3.10132L8.82347 3.06086V2.85626V1.99903C8.82347 1.35131 9.35446 0.820312 10.0022 0.820312C10.6499 0.820312 11.1809 1.35131 11.1809 1.99903V2.85626V3.06086L11.3815 3.10132C14.5243 3.73541 16.8958 6.52059 16.8958 9.85697V10.6999C16.8958 12.8613 17.6897 14.9488 19.1156 16.5658L19.1159 16.5661L19.4445 16.9376L19.4444 16.9377L19.4488 16.9423C19.7629 17.2797 19.8361 17.7717 19.6462 18.1991C19.4582 18.6221 19.0341 18.8936 18.5745 18.8936H1.42989C0.966746 18.8936 0.517875 18.605 0.345253 18.2022C0.16756 17.7876 0.240804 17.2776 0.544495 16.9388L0.545598 16.9376L0.873618 16.5668C0.873709 16.5667 0.873799 16.5666 0.873889 16.5665C2.31467 14.9491 3.1086 12.8613 3.1086 10.6999V9.85697C3.1086 6.52059 5.48003 3.73541 8.62291 3.10132ZM8.15253 22.4267C7.72737 21.9901 7.46426 21.4226 7.40672 20.8223H10.0022H12.5977C12.5402 21.4215 12.278 21.988 11.8542 22.4243C11.3575 22.9067 10.6923 23.1798 10.0022 23.1798C9.30612 23.1798 8.62987 22.917 8.15253 22.4267Z" stroke="#AEAEAE" stroke-opacity="0.6" stroke-width="0.5"/>
</svg>
