<svg width="22" height="18" viewBox="0 0 22 18" fill="none" xmlns="http://www.w3.org/2000/svg">
<path d="M4.42603 0.798828H17.4438V8.81658C17.4438 11.578 15.2052 13.8166 12.4438 13.8166H4.42603V0.798828Z" fill="#AEAEAE" fill-opacity="0.6"/>
<path d="M5.84766 1.83008H18.3654V9.59783C18.3654 12.2212 16.2388 14.3478 13.6154 14.3478H5.84766V1.83008Z" fill="#AEAEAE" fill-opacity="0.6" stroke="white" stroke-width="0.5"/>
<path d="M6.88904 2.74121H19.4068V10.509C19.4068 13.1323 17.2801 15.259 14.6568 15.259H6.88904V2.74121Z" fill="#AEAEAE" fill-opacity="0.6" stroke="white" stroke-width="0.5"/>
<path d="M8.1908 3.52246H20.7085V11.2902C20.7085 13.9136 18.5819 16.0402 15.9585 16.0402H8.1908V3.52246Z" fill="#AEAEAE" fill-opacity="0.6" stroke="white" stroke-width="0.5"/>
<path d="M9.23218 4.43359H21.7499V12.2013C21.7499 14.8247 19.6233 16.9513 16.9999 16.9513H9.23218V4.43359Z" fill="#AEAEAE" fill-opacity="0.6" stroke="white" stroke-width="0.5"/>
<path d="M10.1664 4.08732H3.63778C3.51237 4.08732 3.39209 4.0375 3.30341 3.94883C3.21474 3.86015 3.16492 3.73987 3.16492 3.61446C3.16492 3.48905 3.21474 3.36878 3.30341 3.2801C3.39209 3.19142 3.51237 3.1416 3.63778 3.1416H10.1664C10.2918 3.1416 10.4121 3.19142 10.5008 3.2801C10.5895 3.36878 10.6393 3.48905 10.6393 3.61446C10.6393 3.73987 10.5895 3.86015 10.5008 3.94883C10.4121 4.0375 10.2918 4.08732 10.1664 4.08732Z" fill="#AEAEAE" fill-opacity="0.6"/>
<path d="M4.82633 6.13029H0.472861C0.34745 6.13029 0.227176 6.08047 0.138498 5.99179C0.0498192 5.90312 0 5.78284 0 5.65743C0 5.53202 0.0498192 5.41175 0.138498 5.32307C0.227176 5.23439 0.34745 5.18457 0.472861 5.18457H4.82633C4.95174 5.18457 5.07202 5.23439 5.1607 5.32307C5.24937 5.41175 5.29919 5.53202 5.29919 5.65743C5.29919 5.78284 5.24937 5.90312 5.1607 5.99179C5.07202 6.08047 4.95174 6.13029 4.82633 6.13029Z" fill="#AEAEAE" fill-opacity="0.6"/>
<path d="M8.45171 9.1215H4.49544C4.43335 9.1215 4.37186 9.10927 4.31449 9.08551C4.25712 9.06175 4.20499 9.02691 4.16108 8.983C4.11717 8.9391 4.08234 8.88697 4.05858 8.8296C4.03481 8.77223 4.02258 8.71074 4.02258 8.64864C4.02258 8.58655 4.03481 8.52506 4.05858 8.46769C4.08234 8.41032 4.11717 8.35819 4.16108 8.31428C4.20499 8.27037 4.25712 8.23554 4.31449 8.21177C4.37186 8.18801 4.43335 8.17578 4.49544 8.17578H8.45171C8.57712 8.17578 8.6974 8.2256 8.78608 8.31428C8.87475 8.40296 8.92457 8.52323 8.92457 8.64864C8.92457 8.77405 8.87475 8.89433 8.78608 8.983C8.6974 9.07168 8.57712 9.1215 8.45171 9.1215Z" fill="#AEAEAE" fill-opacity="0.6"/>
<path d="M4.60572 13.85H1.70235C1.57694 13.85 1.45667 13.8002 1.36799 13.7115C1.27931 13.6228 1.22949 13.5026 1.22949 13.3772C1.22949 13.2517 1.27931 13.1315 1.36799 13.0428C1.45667 12.9541 1.57694 12.9043 1.70235 12.9043H4.60572C4.73113 12.9043 4.8514 12.9541 4.94008 13.0428C5.02876 13.1315 5.07858 13.2517 5.07858 13.3772C5.07858 13.5026 5.02876 13.6228 4.94008 13.7115C4.8514 13.8002 4.73113 13.85 4.60572 13.85Z" fill="#AEAEAE" fill-opacity="0.6"/>
<path d="M11.5535 13.85H6.21017C6.08476 13.85 5.96448 13.8002 5.8758 13.7115C5.78712 13.6228 5.7373 13.5026 5.7373 13.3772C5.7373 13.2517 5.78712 13.1315 5.8758 13.0428C5.96448 12.9541 6.08476 12.9043 6.21017 12.9043H11.5693C11.6947 12.9043 11.8149 12.9541 11.9036 13.0428C11.9923 13.1315 12.0421 13.2517 12.0421 13.3772C12.0421 13.5026 11.9923 13.6228 11.9036 13.7115C11.8149 13.8002 11.6947 13.85 11.5693 13.85H11.5535Z" fill="#AEAEAE" fill-opacity="0.6"/>
</svg>
