<svg width="20" height="24" viewBox="0 0 20 24" fill="none" xmlns="http://www.w3.org/2000/svg">
<path d="M10 12.0004C11.5155 12.0004 12.969 11.4012 14.0406 10.3345C15.1122 9.26787 15.7143 7.82118 15.7143 6.31271C15.7143 4.80423 15.1122 3.35754 14.0406 2.29089C12.969 1.22424 11.5155 0.625 10 0.625C8.48448 0.625 7.03103 1.22424 5.95939 2.29089C4.88775 3.35754 4.28571 4.80423 4.28571 6.31271C4.28571 7.82118 4.88775 9.26787 5.95939 10.3345C7.03103 11.4012 8.48448 12.0004 10 12.0004ZM7.95982 14.1333C3.5625 14.1333 0 17.6792 0 22.0561C0 22.7848 0.59375 23.3758 1.32589 23.3758H18.6741C19.4062 23.3758 20 22.7848 20 22.0561C20 17.6792 16.4375 14.1333 12.0402 14.1333H7.95982Z" fill="#AEAEAE" fill-opacity="0.6"/>
</svg>
