<svg width="18" height="18" viewBox="0 0 18 18" fill="none" xmlns="http://www.w3.org/2000/svg">
<path d="M13.0147 11.4722L12.8887 11.645L13.0399 11.7962L17.4942 16.2505C17.8337 16.59 17.8372 17.1412 17.4931 17.4953C17.1535 17.8337 16.6031 17.8368 16.2493 17.493C16.249 17.4927 16.2486 17.4923 16.2483 17.492L11.7962 13.0399L11.6441 12.8878L11.4709 13.0156C10.3098 13.8728 8.8657 14.3727 7.31136 14.3727C3.41131 14.3727 0.25 11.2114 0.25 7.31136C0.25 3.41131 3.41131 0.25 7.31136 0.25C11.2114 0.25 14.3727 3.41131 14.3727 7.31136C14.3727 8.86457 13.8623 10.3094 13.0147 11.4722ZM7.31136 12.6231C10.2502 12.6231 12.6231 10.2502 12.6231 7.31136C12.6231 4.37247 10.2502 1.99965 7.31136 1.99965C4.37247 1.99965 1.99965 4.37247 1.99965 7.31136C1.99965 10.2502 4.37247 12.6231 7.31136 12.6231Z" stroke="black" stroke-width="0.5"/>
</svg>
