<svg width="20" height="22" viewBox="0 0 20 22" fill="none" xmlns="http://www.w3.org/2000/svg">
<path d="M19.9446 7.2972C20.0772 7.65776 19.9653 8.05977 19.6793 8.31673L17.8848 9.94963C17.9304 10.2936 17.9552 10.6459 17.9552 11.0023C17.9552 11.3587 17.9304 11.711 17.8848 12.055L19.6793 13.6879C19.9653 13.9449 20.0772 14.3469 19.9446 14.7074C19.7622 15.2006 19.5425 15.6731 19.2897 16.129L19.0949 16.4647C18.8214 16.9206 18.5147 17.3516 18.179 17.7577C17.9345 18.0561 17.5284 18.1556 17.1636 18.0396L14.8552 17.306C14.2998 17.7329 13.6865 18.0893 13.0317 18.3587L12.5136 20.7251C12.4307 21.1023 12.1406 21.4007 11.7593 21.4629C11.1874 21.5582 10.5989 21.6079 9.99793 21.6079C9.39699 21.6079 8.80848 21.5582 8.23655 21.4629C7.85526 21.4007 7.56515 21.1023 7.48226 20.7251L6.9642 18.3587C6.30939 18.0893 5.69601 17.7329 5.14066 17.306L2.83635 18.0437C2.47164 18.1597 2.06549 18.0561 1.82097 17.7619C1.48527 17.3557 1.17858 16.9247 0.90505 16.4688L0.710262 16.1331C0.457452 15.6772 0.237797 15.2048 0.0554424 14.7116C-0.0771793 14.351 0.0347202 13.949 0.320686 13.692L2.11522 12.0591C2.06963 11.711 2.04477 11.3587 2.04477 11.0023C2.04477 10.6459 2.06963 10.2936 2.11522 9.94963L0.320686 8.31673C0.0347202 8.05977 -0.0771793 7.65776 0.0554424 7.2972C0.237797 6.80401 0.457452 6.33154 0.710262 5.87566L0.90505 5.53996C1.17858 5.08407 1.48527 4.65305 1.82097 4.2469C2.06549 3.9485 2.47164 3.84903 2.83635 3.96508L5.1448 4.69864C5.70015 4.27176 6.31353 3.91534 6.96835 3.64595L7.4864 1.27949C7.56929 0.902343 7.8594 0.603944 8.24069 0.541778C8.81262 0.442311 9.40113 0.392578 10.0021 0.392578C10.603 0.392578 11.1915 0.442311 11.7635 0.537633C12.1447 0.5998 12.4349 0.898198 12.5177 1.27534L13.0358 3.64181C13.6906 3.9112 14.304 4.26762 14.8593 4.6945L17.1678 3.96093C17.5325 3.84489 17.9387 3.9485 18.1832 4.24275C18.5189 4.64891 18.8256 5.07993 19.0991 5.53581L19.2939 5.87151C19.5467 6.3274 19.7663 6.79987 19.9487 7.29305L19.9446 7.2972ZM10.0021 14.3179C11.8339 14.3179 13.3176 12.8342 13.3176 11.0023C13.3176 9.17048 11.8339 7.68677 10.0021 7.68677C8.17023 7.68677 6.68653 9.17048 6.68653 11.0023C6.68653 12.8342 8.17023 14.3179 10.0021 14.3179Z" fill="#AEAEAE" fill-opacity="0.6"/>
</svg>
