<svg width="20" height="28" viewBox="0 0 20 28" fill="none" xmlns="http://www.w3.org/2000/svg">
<path d="M2.58765 12.6987C2.58765 13.9359 3.34079 15.0042 4.42463 15.3125C5.23697 17.5675 7.38261 19.0796 9.7782 19.0796C12.1738 19.0796 14.3194 17.5675 15.1317 15.3125C16.2156 15.0042 16.9688 13.9364 16.9688 12.6987C16.9688 11.8635 16.6103 11.0672 16.0074 10.5565L16.0958 10.0816C16.0958 9.90478 16.0837 9.73206 16.0697 9.55891L16.0584 9.4209L15.9406 9.49403C14.2975 10.5131 11.6355 10.9689 9.7263 10.9689C7.87138 10.9689 5.26092 10.5317 3.61054 9.55481L3.4903 9.52341L3.4803 9.65935C3.47008 9.79944 3.45986 9.93911 3.4613 10.0974L3.54816 10.5577C2.94575 11.0685 2.58765 11.8644 2.58765 12.6987Z" fill="#AEAEAE" fill-opacity="0.6"/>
<path d="M15.3306 20.6574C14.8178 20.3397 14.3335 20.0396 13.9413 19.7297L13.8915 19.6904L13.8397 19.7272C13.4732 19.9888 12.1789 21.333 11.124 22.4509L10.5414 21.3186L10.8447 21.1017V19.9917H8.7119V21.1017L9.01513 21.3186L8.43236 22.4513C7.37716 21.3331 6.08222 19.9888 5.71603 19.7272L5.66424 19.6904L5.61437 19.7297C5.2222 20.0396 4.73779 20.3397 4.22506 20.6574C2.62674 21.648 0.815308 22.7703 0.815308 24.7741C0.815308 25.9581 3.59588 27.6259 9.77791 27.6259C15.9599 27.6259 18.7405 25.9581 18.7405 24.7741C18.7404 22.7703 16.9289 21.648 15.3306 20.6574Z" fill="#AEAEAE" fill-opacity="0.6"/>
<path d="M3.38245 7.39047C3.38245 8.38308 6.36938 9.64225 9.72634 9.64225C13.0833 9.64225 16.0702 8.38313 16.0702 7.39047V6.02225L18.3857 5.08004V8.05867C18.116 8.10083 17.9086 8.3347 17.9086 8.61488C17.9086 8.85456 18.0665 9.06368 18.2941 9.13926L17.8335 12.179H20L19.5395 9.13926C19.7668 9.06363 19.9245 8.8545 19.9245 8.61488C19.9245 8.33305 19.7159 8.09875 19.4447 8.05782L19.4335 4.4812C19.4525 4.44815 19.4525 4.41381 19.4525 4.39566C19.4525 4.37746 19.4525 4.34361 19.4446 4.34361H19.4445C19.4305 4.21342 19.3374 4.09813 19.2018 4.04278L18.5883 3.79155L10.6148 0.546369C10.3386 0.43353 10.0314 0.374023 9.72634 0.374023C9.42125 0.374023 9.11413 0.43353 8.838 0.546369L0.250853 4.0432C0.0984678 4.10558 0 4.24402 0 4.39566C0 4.54693 0.0983612 4.68537 0.251013 4.74855L3.38245 6.02214V7.39047Z" fill="#AEAEAE" fill-opacity="0.6"/>
</svg>
 