<svg width="22" height="22" viewBox="0 0 22 22" fill="none" xmlns="http://www.w3.org/2000/svg">
<path d="M16.4445 9.26367C16.551 9.26367 16.6574 9.28686 16.7547 9.33091L21.1134 11.1834C21.6227 11.399 22.0023 11.9021 22 12.5095C21.9884 14.8094 21.044 19.0174 17.0556 20.9301C16.669 21.1156 16.2199 21.1156 15.8334 20.9301C11.8449 19.0174 10.9005 14.8094 10.8889 12.5095C10.8866 11.9021 11.2662 11.399 11.7755 11.1834L16.1366 9.33091C16.2315 9.28686 16.338 9.26367 16.4445 9.26367ZM16.4445 10.8124V19.5761C19.6389 18.0274 20.4977 14.5984 20.5185 12.542L16.4445 10.8124Z" fill="#AEAEAE" fill-opacity="0.6"/>
<path d="M8.33333 10.4102C9.59627 10.4102 10.8075 9.91081 11.7005 9.02194C12.5935 8.13306 13.0952 6.92748 13.0952 5.67042C13.0952 4.41336 12.5935 3.20778 11.7005 2.31891C10.8075 1.43003 9.59627 0.930664 8.33333 0.930664C7.0704 0.930664 5.85919 1.43003 4.96616 2.31891C4.07313 3.20778 3.57143 4.41336 3.57143 5.67042C3.57143 6.92748 4.07313 8.13306 4.96616 9.02194C5.85919 9.91081 7.0704 10.4102 8.33333 10.4102ZM6.63319 12.1876C2.96875 12.1876 0 15.1425 0 18.7899C0 19.3972 0.494792 19.8897 1.10491 19.8897H15.5618C16.1719 19.8897 16.6667 19.3972 16.6667 18.7899C16.6667 15.1425 13.6979 12.1876 10.0335 12.1876H6.63319Z" fill="#AEAEAE" fill-opacity="0.6"/>
</svg>
