<svg width="20" height="24" viewBox="0 0 20 24" fill="none" xmlns="http://www.w3.org/2000/svg">
<path d="M19.9265 21.9295L19.4254 20.4564C18.4846 17.6853 15.9368 15.7968 13.0342 15.6729C12.7787 15.8713 12.5094 16.0419 12.2303 16.191C11.8141 17.2837 10.416 17.5797 9.59678 16.7429C8.62768 16.6573 7.74043 16.2745 6.96558 15.6729C4.06294 15.7964 1.51585 17.6849 0.574328 20.4564L0.0741123 21.9295C-0.0704953 22.3533 -0.000851078 22.8202 0.259994 23.184C0.520002 23.548 0.940723 23.7637 1.38819 23.7637H18.6117C19.0591 23.7637 19.4798 23.5481 19.7399 23.184C20.0006 22.8202 20.0702 22.3533 19.9265 21.9295Z" fill="#AEAEAE" fill-opacity="0.6"/>
<path d="M11.9175 14.5515C13.6026 13.3671 14.7812 10.7515 14.7812 8.22287C14.7812 1.03648 5.21948 1.04411 5.21948 8.22287C5.21948 11.2961 6.9596 14.493 9.23589 15.0965C9.45536 14.4746 10.0428 14.0249 10.7389 14.0249C11.207 14.0248 11.6246 14.2301 11.9175 14.5515Z" fill="#AEAEAE" fill-opacity="0.6"/>
<path d="M3.12138 11.2228C3.35844 12.154 4.6504 11.8978 4.6504 11.0354C4.6504 7.57895 4.81559 7.25619 4.35286 6.88103C5.41215 0.353594 14.5371 0.402552 15.6478 6.88177C15.1857 7.25811 15.351 7.57934 15.351 11.0354C15.351 11.3058 15.4963 11.5327 15.7051 11.6734C15.7051 14.3623 14.6144 14.2051 11.3346 15.0744C10.8275 14.524 9.92183 14.8824 9.92183 15.6247C9.92183 16.5544 11.2543 16.772 11.5128 15.8374C14.1608 15.1352 16.4883 14.9138 16.4883 12.2673V11.7242C16.6848 11.6224 16.824 11.442 16.8799 11.2228C19.4323 11.1708 19.4331 7.34568 16.8799 7.29367C16.8271 7.08484 16.6971 6.91427 16.5143 6.81025C16.5801 6.02703 16.4187 4.99749 15.9697 4.00355C12.8468 -2.44049 3.62307 0.0808785 3.47862 6.32609C3.45872 6.53759 3.47477 6.68751 3.48699 6.81025C3.30416 6.91427 3.17418 7.08484 3.12138 7.29367C2.05209 7.31431 1.19006 8.18437 1.19006 9.25829C1.19006 10.3322 2.05209 11.2022 3.12138 11.2228Z" fill="#AEAEAE" fill-opacity="0.6"/>
</svg>
