<svg width="20" height="20" viewBox="0 0 20 20" fill="none" xmlns="http://www.w3.org/2000/svg">
<path d="M18.2787 17.3787L17.0276 17.0669L16.9751 16.8569C17.3002 16.4985 17.5302 16.0409 17.6261 15.5657C17.8486 15.4507 18.0103 15.2324 18.0429 14.9689L18.1329 14.2454C18.1604 14.0254 18.0929 13.8037 17.947 13.637C17.902 13.5853 17.8512 13.5411 17.7945 13.5036L17.8162 13.061L17.892 12.9843C18.107 12.7568 18.3971 12.2683 17.9378 11.5657C17.7195 11.2323 17.2702 10.833 16.3675 10.833C16.1024 10.833 15.5031 10.833 14.9213 11.1981C13.2059 11.2573 13.0042 12.1825 13.0042 12.8802C13.0042 13.0177 13.0284 13.2761 13.0525 13.4911C12.9908 13.5303 12.9333 13.5778 12.885 13.6345C12.7366 13.802 12.6682 14.0254 12.6966 14.2446L12.7866 14.9698C12.8208 15.2407 12.9934 15.4666 13.2476 15.5774C13.3409 16.0325 13.5593 16.4718 13.8635 16.8219L13.8027 17.067L12.5516 17.3787C11.5397 17.6321 10.8312 18.539 10.8312 19.5842C10.8312 19.8143 11.0179 20.001 11.248 20.001H19.5832C19.8133 20.001 20 19.8135 20 19.5834C20 18.5389 19.2915 17.6321 18.2787 17.3787Z" fill="#AEAEAE" fill-opacity="0.6"/>
<path d="M11.3771 17.011C11.498 16.9277 11.568 16.7885 11.5605 16.6434C11.5538 16.4976 11.4713 16.3659 11.3421 16.2967C11.2446 16.2434 11.1446 16.2008 11.0446 16.1575C11.3279 15.8357 11.6047 15.4915 11.8631 15.103C11.9173 15.0197 11.9414 14.9197 11.9289 14.8213L11.8706 14.347C11.8222 13.9761 11.9089 13.5977 12.1114 13.2809C12.1598 13.2067 12.1823 13.1184 12.1765 13.0301C12.1731 12.9751 12.1715 12.9242 12.1715 12.88C12.1715 12.2332 12.3632 11.0754 13.6476 10.5937C13.7735 10.5462 13.8694 10.4411 13.9044 10.3119C14.5003 8.08974 14.7746 5.82007 14.8996 4.00964C15.3597 3.56036 16.014 3.12526 16.5992 3.51035C17.4227 4.05466 17.8128 5.98843 17.101 7.76052C16.9042 8.25063 16.5917 8.78244 16.1716 9.34089C16.0332 9.52511 16.0699 9.78599 16.2541 9.92434C16.3299 9.98103 16.4174 10.0085 16.505 10.0085C16.6308 10.0085 16.7567 9.95103 16.8375 9.84268C17.3085 9.21586 17.6477 8.63658 17.8745 8.07145C18.6863 6.05016 18.3121 3.64292 17.0585 2.81523C16.7401 2.60436 15.9715 2.27842 14.9621 2.90857C15.0013 1.98167 15.0022 1.25986 14.9963 0.830585H15.4031C15.6332 0.830585 15.8199 0.643861 15.8199 0.413808C15.8199 0.183754 15.6331 -0.00292969 15.4031 -0.00292969H2.90016C2.67011 -0.00292969 2.48342 0.183793 2.48342 0.413847C2.48342 0.643901 2.67014 0.830624 2.9002 0.830624H3.30611C3.29943 1.26404 3.29861 1.98757 3.33694 2.90611C2.33003 2.27928 1.56321 2.60436 1.24563 2.81527C-0.00801772 3.64292 -0.381425 6.05016 0.429584 8.07145C1.58985 10.9596 5.42157 13.5702 5.58496 13.6794C5.60079 13.6903 5.61915 13.6869 5.6358 13.6953C6.0809 14.6005 6.60934 15.4348 7.23949 16.1508C5.91418 16.7301 4.98479 18.0505 4.98479 19.5866C4.98479 19.8167 5.17151 20.0034 5.40156 20.0034H9.58171C9.81177 20.0034 9.99849 19.8167 9.99849 19.5866C9.99849 18.5531 10.5136 17.5895 11.3771 17.011ZM1.20312 7.75888C0.491278 5.98678 0.880548 4.05383 1.70492 3.50871C2.28674 3.1253 2.93853 3.55454 3.39699 4.00132C3.55453 6.33687 3.96463 9.43841 4.98736 12.1857C3.78622 11.223 1.90911 9.51511 1.20312 7.75888ZM8.99908 14.9039C8.92156 14.9689 8.82822 14.9997 8.73484 14.9997C8.61399 14.9997 8.49478 14.9472 8.41226 14.8463C5.33991 11.0905 5.01733 3.5604 4.984 2.08924C4.979 1.85918 5.16154 1.66832 5.39078 1.66246C5.62501 1.68164 5.81256 1.84 5.81756 2.06923C5.85006 3.49288 6.15846 10.7738 9.05749 14.3179C9.20331 14.4963 9.17748 14.758 8.99908 14.9039Z" fill="#AEAEAE" fill-opacity="0.6"/>
</svg>
