<svg width="20" height="22" viewBox="0 0 20 22" fill="none" xmlns="http://www.w3.org/2000/svg">
<path d="M17.9315 16.2178L17.8591 16.1966C16.8011 15.9128 16.443 15.6391 15.9724 15.461C14.302 14.8242 13.8677 14.3656 13.7565 14.1494C13.7521 14.1412 13.7496 14.1331 13.7459 14.125L13.7321 12.1846L9.77114 12.1396L5.80981 12.1846L5.79605 14.125C5.79261 14.1331 5.78949 14.1412 5.78541 14.1494C5.67418 14.3656 5.23987 14.8242 3.56949 15.461C3.0989 15.6391 2.74086 15.9128 1.68318 16.1966L1.61071 16.2178C0.64805 16.5365 0 17.4288 0 18.4368V21.2383H9.77114H19.542V18.4368C19.5419 17.4288 18.8939 16.5365 17.9315 16.2178Z" fill="#AEAEAE" fill-opacity="0.6"/>
<path d="M14.8114 14.9542C14.6821 14.888 14.5671 14.8249 14.4658 14.7642C14.432 14.7442 14.3996 14.7242 14.3696 14.7055C14.3689 14.7049 14.3689 14.7049 14.3689 14.7049C14.3546 14.6955 14.3396 14.6868 14.3258 14.6774C14.3246 14.6768 14.3233 14.6762 14.3221 14.6755C14.2945 14.6574 14.2677 14.6393 14.2421 14.6218C14.2408 14.6205 14.2389 14.6193 14.2371 14.618C14.2264 14.6105 14.2158 14.603 14.2058 14.5961C14.2034 14.5943 14.2008 14.593 14.1996 14.5918C14.1758 14.5749 14.1534 14.5593 14.1327 14.543C14.1302 14.5418 14.1277 14.5393 14.1252 14.538C14.1171 14.5318 14.1096 14.5256 14.1014 14.5193C14.099 14.518 14.0964 14.5155 14.0939 14.513C14.0846 14.5055 14.0746 14.498 14.0658 14.4906C14.0558 14.4993 14.0508 14.4956 14.0508 14.4793C13.8808 14.3393 13.7971 14.2281 13.7565 14.1494C13.7521 14.1412 13.7496 14.1331 13.7458 14.125L13.7321 12.1846L9.77111 12.1396L5.80978 12.1846L5.79602 14.125C5.79258 14.1331 5.78946 14.1412 5.78538 14.1494C5.71195 14.2918 5.49762 14.5405 4.87988 14.8761C5.05702 15.0879 5.42262 15.4772 5.98908 15.8628C6.73556 16.3703 7.99755 16.9758 9.77107 16.9758C11.5374 16.9758 12.8609 16.3753 13.6596 15.8716C14.2134 15.5223 14.5983 15.1717 14.8114 14.9542Z" fill="#AEAEAE" fill-opacity="0.6"/>
<path d="M15.2675 8.4315C15.2675 12.0029 11.8624 15.2892 9.77114 15.2892C7.67925 15.2892 4.27441 12.0029 4.27441 8.4315C4.27441 4.86013 6.73531 2.50391 9.77114 2.50391C12.8066 2.50391 15.2675 4.86013 15.2675 8.4315Z" fill="#AEAEAE" fill-opacity="0.6"/>
<path d="M14.8114 14.9547C14.4646 14.7772 14.2271 14.6223 14.0658 14.4911C13.869 14.6748 13.5709 14.9228 13.176 15.1697C12.1586 15.8021 11.0131 16.1239 9.77115 16.1239C8.53633 16.1239 7.43617 15.8058 6.50099 15.1809C6.05076 14.8791 5.74891 14.5742 5.58925 14.3936C5.45054 14.5248 5.22993 14.686 4.88 14.8765C5.05715 15.0884 5.42275 15.4777 5.9892 15.8633C6.73568 16.3708 7.99767 16.9762 9.77119 16.9762C11.5375 16.9762 12.8611 16.3757 13.6597 15.8721C14.2134 15.5228 14.5983 15.1722 14.8114 14.9547Z" fill="#AEAEAE" fill-opacity="0.6"/>
<path d="M10.1974 1.18791C10.1974 1.42317 10.0064 1.61411 9.77116 1.61411C9.53555 1.61411 9.34497 1.42321 9.34497 1.18791C9.34497 0.952298 9.53559 0.761719 9.77116 0.761719C10.0064 0.761679 10.1974 0.952298 10.1974 1.18791Z" fill="#AEAEAE" fill-opacity="0.6"/>
<path d="M9.7709 1.1875C6.69196 1.1875 4.0992 3.72682 4.0992 6.8592L4.09888 8.43335H15.4426L15.4432 6.8592C15.4432 3.72682 12.8498 1.1875 9.7709 1.1875Z" fill="#AEAEAE" fill-opacity="0.6"/>
<path d="M15.933 8.0569C15.933 8.0569 14.7739 5.87598 9.77112 5.87598C4.76839 5.87598 3.60883 8.0569 3.60883 8.0569C3.49884 8.26376 3.60039 8.4331 3.83505 8.4331H15.7068C15.9418 8.4331 16.043 8.26372 15.933 8.0569Z" fill="#AEAEAE" fill-opacity="0.6"/>
<path d="M15.8755 7.9668C15.8318 7.99243 15.7756 8.00711 15.7068 8.00711H3.83505C3.76662 8.00711 3.70974 7.99243 3.66603 7.9668C3.62635 8.02431 3.60883 8.05711 3.60883 8.05711C3.49884 8.26397 3.60039 8.43331 3.83505 8.43331H15.7068C15.9418 8.43331 16.043 8.26397 15.933 8.05711C15.933 8.05711 15.9155 8.02427 15.8755 7.9668Z" fill="#AEAEAE" fill-opacity="0.6"/>
<path d="M9.77077 2.4668C9.06461 2.4668 8.49219 3.03921 8.49219 3.74538C8.49219 4.4515 9.06461 5.02424 9.77077 5.02424C10.4772 5.02424 11.0499 4.4515 11.0499 3.74538C11.0499 3.03921 10.4772 2.4668 9.77077 2.4668ZM9.77077 4.17153C9.53579 4.17153 9.34457 3.98063 9.34457 3.74538C9.34457 3.5104 9.53579 3.31918 9.77077 3.31918C10.006 3.31918 10.1973 3.5104 10.1973 3.74538C10.1973 3.98063 10.006 4.17153 9.77077 4.17153Z" fill="#AEAEAE" fill-opacity="0.6"/>
<path d="M16.5904 14.4014C14.7107 14.4014 13.1809 15.9311 13.1809 17.8108C13.1809 19.6912 14.7107 21.2204 16.5904 21.2204C18.4708 21.2204 20 19.6912 20 17.8108C20 15.9311 18.4708 14.4014 16.5904 14.4014Z" fill="#AEAEAE" fill-opacity="0.6"/>
<path d="M13.1897 18.0634C13.3197 19.8257 14.7951 21.2205 16.5904 21.2205C18.4202 21.2205 19.9181 19.7719 19.9969 17.9609L13.1897 18.0634Z" fill="#AEAEAE" fill-opacity="0.6"/>
<path d="M19.9575 18.3517C19.9856 18.1755 20 17.9949 20 17.8105C20 17.6981 19.995 17.5862 19.9837 17.4756C19.4213 17.5949 18.1814 17.8105 16.5904 17.8105C15.1331 17.8105 13.877 17.6224 13.1971 17.4781C13.1865 17.5869 13.1809 17.6981 13.1809 17.8105C13.1809 17.9949 13.1959 18.1755 13.224 18.3517C13.8908 18.4824 15.0881 18.6629 16.5904 18.6629C18.094 18.6629 19.29 18.4823 19.9575 18.3517Z" fill="#AEAEAE" fill-opacity="0.6"/>
<path d="M17.4429 18.2372C17.4429 18.7083 17.0617 19.0895 16.5905 19.0895C16.12 19.0895 15.7382 18.7083 15.7382 18.2372C15.7382 17.7666 16.12 17.3848 16.5905 17.3848C17.0617 17.3847 17.4429 17.7666 17.4429 18.2372Z" fill="#AEAEAE" fill-opacity="0.6"/>
<path d="M16.5905 19.5151C15.8855 19.5151 15.3119 18.9415 15.3119 18.2365C15.3119 17.5316 15.8855 16.958 16.5905 16.958C17.2954 16.958 17.8691 17.5316 17.8691 18.2365C17.8691 18.9415 17.2954 19.5151 16.5905 19.5151ZM16.5905 17.8104C16.3555 17.8104 16.1643 18.0016 16.1643 18.2365C16.1643 18.4715 16.3555 18.6627 16.5905 18.6627C16.8254 18.6627 17.0167 18.4715 17.0167 18.2365C17.0167 18.0016 16.8254 17.8104 16.5905 17.8104Z" fill="#AEAEAE" fill-opacity="0.6"/>
<path opacity="0.2" d="M16.5904 14.4014C16.5192 14.4014 16.4479 14.4038 16.3779 14.4076C18.1589 14.5188 19.5737 16.0024 19.5737 17.8108C19.5737 19.6193 18.1589 21.1035 16.3779 21.2141C16.4479 21.2179 16.5192 21.2204 16.5904 21.2204C18.4707 21.2204 19.9999 19.6912 19.9999 17.8108C19.9999 15.9311 18.4707 14.4014 16.5904 14.4014Z" fill="white"/>
</svg>
